<svg data-v-423bf9ae="" xmlns="http://www.w3.org/2000/svg" viewBox="0 0 588 90" class="iconLeft"><!----><!----><!----><g data-v-423bf9ae="" id="e9d73e7b-71fc-45c0-9d13-b976319ff1f3" fill="#150355" transform="matrix(5.7526364568010235,0,0,5.7526364568010235,207.36339656123482,-6.284755879726603)"><path d="M0.06 14.08L1.25 14.08L2.34 11.61L7.69 11.61L8.78 14.08L10.00 14.08L5.61 4.28L4.45 4.28ZM2.81 10.53L5.00 5.56L7.21 10.53ZM10.40 13.09C11.10 13.76 12.18 14.13 13.23 14.13C14.64 14.13 15.93 13.48 15.93 12.03C15.93 9.38 11.82 10.22 11.82 8.58C11.82 7.90 12.45 7.60 13.27 7.60C13.96 7.60 14.70 7.84 15.27 8.20L15.69 7.34C15.08 6.92 14.22 6.66 13.34 6.66C12.00 6.66 10.78 7.25 10.78 8.67C10.77 11.28 14.90 10.37 14.85 12.15C14.84 12.88 14.14 13.20 13.27 13.20C12.40 13.20 11.45 12.85 10.82 12.26ZM16.74 13.09C17.44 13.76 18.52 14.13 19.57 14.13C20.99 14.13 22.27 13.48 22.27 12.03C22.27 9.38 18.16 10.22 18.16 8.58C18.16 7.90 18.79 7.60 19.61 7.60C20.30 7.60 21.04 7.84 21.62 8.20L22.04 7.34C21.42 6.92 20.57 6.66 19.68 6.66C18.34 6.66 17.12 7.25 17.12 8.67C17.11 11.28 21.24 10.37 21.20 12.15C21.18 12.88 20.48 13.20 19.61 13.20C18.75 13.20 17.79 12.85 17.16 12.26ZM23.32 10.39C23.32 12.60 24.88 14.13 27.06 14.13C29.25 14.13 30.80 12.60 30.80 10.39C30.80 8.19 29.25 6.68 27.06 6.68C24.88 6.68 23.32 8.19 23.32 10.39ZM24.42 10.40C24.42 8.79 25.52 7.67 27.06 7.67C28.60 7.67 29.71 8.79 29.71 10.40C29.71 12.03 28.60 13.15 27.06 13.15C25.52 13.15 24.42 12.03 24.42 10.40ZM32.79 14.08L33.88 14.08L33.88 12.50C34.43 13.52 35.43 14.13 36.75 14.13C38.84 14.13 40.26 12.60 40.26 10.42C40.26 8.20 38.81 6.66 36.72 6.66C35.43 6.66 34.43 7.27 33.88 8.30L33.88 3.70L32.79 3.70ZM33.88 10.39C33.88 8.79 34.97 7.64 36.53 7.64C38.07 7.64 39.16 8.81 39.16 10.39C39.16 11.98 38.07 13.13 36.53 13.13C34.97 13.13 33.88 12.00 33.88 10.39ZM41.44 10.39C41.44 12.60 42.99 14.13 45.18 14.13C47.36 14.13 48.92 12.60 48.92 10.39C48.92 8.19 47.36 6.68 45.18 6.68C42.99 6.68 41.44 8.19 41.44 10.39ZM42.53 10.40C42.53 8.79 43.64 7.67 45.18 7.67C46.72 7.67 47.82 8.79 47.82 10.40C47.82 12.03 46.72 13.15 45.18 13.15C43.64 13.15 42.53 12.03 42.53 10.40ZM50.09 10.39C50.09 12.60 51.65 14.13 53.83 14.13C56.01 14.13 57.57 12.60 57.57 10.39C57.57 8.19 56.01 6.68 53.83 6.68C51.65 6.68 50.09 8.19 50.09 10.39ZM51.18 10.40C51.18 8.79 52.29 7.67 53.83 7.67C55.37 7.67 56.48 8.79 56.48 10.40C56.48 12.03 55.37 13.15 53.83 13.15C52.29 13.15 51.18 12.03 51.18 10.40ZM59.56 14.08L60.65 14.08L60.65 11.97L62.20 10.36L64.72 14.08L66.02 14.08L62.97 9.56L65.73 6.71L64.44 6.71L60.65 10.49L60.65 3.70L59.56 3.70Z"></path></g><defs data-v-423bf9ae=""><linearGradient data-v-423bf9ae="" gradientTransform="rotate(25)" id="a14c4cd8-b871-4ba9-b669-9a8ad768c222" x1="0%" y1="0%" x2="100%" y2="0%"><stop data-v-423bf9ae="" offset="0%" style="stop-color: rgb(65, 15, 248); stop-opacity: 1;"></stop><stop data-v-423bf9ae="" offset="100%" style="stop-color: rgb(65, 15, 248); stop-opacity: 1;"></stop></linearGradient></defs><g data-v-423bf9ae="" id="9123bd5d-e6d1-4e95-9d73-396d2739a82c" transform="matrix(1.9266584802801152,0,0,1.9266584802801152,0.14571990797328738,0)" stroke="none" fill="url(#a14c4cd8-b871-4ba9-b669-9a8ad768c222)"><path d="M35.03 35.148c-7.732-3.146-11.661-3.487-15.821-3.848-4.101-.354-8.347-.729-16.382-3.95-.597.901-1.09 2.651-1.487 4.772 8.261 2.153 12.443 1.988 16.477 1.821 4.081-.168 8.298-.341 16.548 1.847 2.792.741 4.966 1.47 6.695 2.176-1.536-.849-3.491-1.785-6.03-2.818zM34.048 37.982c-8.068-2.141-12.008-1.98-16.182-1.808-4.11.17-8.367.338-16.739-1.835a85.795 85.795 0 0 0-.661 5.174c8.167.969 12.216.268 16.122-.416 4.021-.703 8.179-1.43 16.647-.348 3.312.424 5.807.94 7.732 1.5-1.709-.719-3.944-1.478-6.919-2.267zM16.801 41.31c-3.991.697-8.125 1.412-16.451.43-.17 1.895-.287 3.646-.35 4.945 8.365-.059 12.312-1.281 16.133-2.465 3.901-1.208 7.934-2.457 16.469-2.457 2.886 0 5.174.146 7.025.387-1.702-.43-3.83-.831-6.547-1.178-8.28-1.06-12.166-.381-16.279.338zM79.611 33.969c4.043.165 8.232.333 16.533-1.835-.41-2.307-.904-4.096-1.479-4.783-8.078 3.246-12.334 3.619-16.447 3.975-4.16.361-8.09.7-15.822 3.849-2.539 1.034-4.496 1.97-6.031 2.821 1.729-.707 3.904-1.438 6.699-2.178 8.248-2.19 12.467-2.016 16.547-1.849z"></path><path d="M94.041 25.278L85.287 0c-6.336 2.515-9.715 2.807-12.984 3.09-3.342.289-6.498.562-12.707 3.089-8.611 3.506-9.078 5.696-9.328 6.873-.121.565-.264 1.197-1.038 1.609v28.725c.004-.006.012-.012.017-.02.036-.052.068-.115.1-.184.065-.158.114-.348.174-.625.39-1.831 1.042-4.896 12.414-9.523 7.904-3.22 12.111-3.583 16.18-3.936 3.992-.345 8.119-.701 15.926-3.82z"></path><path d="M80.837 39.123c3.91.684 7.961 1.383 16.141.414a92.14 92.14 0 0 0-.633-5.184c-8.398 2.184-12.664 2.017-16.785 1.846-4.174-.171-8.113-.332-16.182 1.809-2.975.79-5.209 1.549-6.922 2.27 1.926-.56 4.422-1.076 7.734-1.5 8.466-1.085 12.628-.358 16.647.345zM81.294 44.247c3.82 1.183 7.768 2.406 16.133 2.466-.072-1.51-.188-3.213-.336-4.948-8.334.985-12.473.269-16.465-.429-4.113-.719-7.998-1.397-16.279-.338-2.715.348-4.844.75-6.545 1.178 1.85-.238 4.137-.387 7.023-.387 8.536 0 12.569 1.25 16.469 2.458zM47.907 42.533c.033.154.061.279.091.394V14.662c-.774-.412-.917-1.044-1.037-1.609-.251-1.177-.717-3.367-9.329-6.873-6.209-2.527-9.365-2.8-12.706-3.089-3.27-.283-6.647-.576-12.981-3.089L3.382 25.25c7.81 3.121 11.938 3.479 15.933 3.824 4.068.353 8.274.717 16.179 3.934 11.372 4.628 12.024 7.694 12.413 9.525z"></path></g><!----></svg>