<svg data-v-423bf9ae="" xmlns="http://www.w3.org/2000/svg" viewBox="0 0 379.44389542389956 60" class="font"><!----><!----><!----><g data-v-423bf9ae="" id="1ab31bc3-50ba-4838-9dc9-1072eeb6a5f6" fill="black" transform="matrix(5.7526364568010235,0,0,5.7526364568010235,-0.345160567671428,-21.284755879726603)"><path d="M0.06 14.08L1.25 14.08L2.34 11.61L7.69 11.61L8.78 14.08L10.00 14.08L5.61 4.28L4.45 4.28ZM2.81 10.53L5.00 5.56L7.21 10.53ZM10.40 13.09C11.10 13.76 12.18 14.13 13.23 14.13C14.64 14.13 15.93 13.48 15.93 12.03C15.93 9.38 11.82 10.22 11.82 8.58C11.82 7.90 12.45 7.60 13.27 7.60C13.96 7.60 14.70 7.84 15.27 8.20L15.69 7.34C15.08 6.92 14.22 6.66 13.34 6.66C12.00 6.66 10.78 7.25 10.78 8.67C10.77 11.28 14.90 10.37 14.85 12.15C14.84 12.88 14.14 13.20 13.27 13.20C12.40 13.20 11.45 12.85 10.82 12.26ZM16.74 13.09C17.44 13.76 18.52 14.13 19.57 14.13C20.99 14.13 22.27 13.48 22.27 12.03C22.27 9.38 18.16 10.22 18.16 8.58C18.16 7.90 18.79 7.60 19.61 7.60C20.30 7.60 21.04 7.84 21.62 8.20L22.04 7.34C21.42 6.92 20.57 6.66 19.68 6.66C18.34 6.66 17.12 7.25 17.12 8.67C17.11 11.28 21.24 10.37 21.20 12.15C21.18 12.88 20.48 13.20 19.61 13.20C18.75 13.20 17.79 12.85 17.16 12.26ZM23.32 10.39C23.32 12.60 24.88 14.13 27.06 14.13C29.25 14.13 30.80 12.60 30.80 10.39C30.80 8.19 29.25 6.68 27.06 6.68C24.88 6.68 23.32 8.19 23.32 10.39ZM24.42 10.40C24.42 8.79 25.52 7.67 27.06 7.67C28.60 7.67 29.71 8.79 29.71 10.40C29.71 12.03 28.60 13.15 27.06 13.15C25.52 13.15 24.42 12.03 24.42 10.40ZM32.79 14.08L33.88 14.08L33.88 12.50C34.43 13.52 35.43 14.13 36.75 14.13C38.84 14.13 40.26 12.60 40.26 10.42C40.26 8.20 38.81 6.66 36.72 6.66C35.43 6.66 34.43 7.27 33.88 8.30L33.88 3.70L32.79 3.70ZM33.88 10.39C33.88 8.79 34.97 7.64 36.53 7.64C38.07 7.64 39.16 8.81 39.16 10.39C39.16 11.98 38.07 13.13 36.53 13.13C34.97 13.13 33.88 12.00 33.88 10.39ZM41.44 10.39C41.44 12.60 42.99 14.13 45.18 14.13C47.36 14.13 48.92 12.60 48.92 10.39C48.92 8.19 47.36 6.68 45.18 6.68C42.99 6.68 41.44 8.19 41.44 10.39ZM42.53 10.40C42.53 8.79 43.64 7.67 45.18 7.67C46.72 7.67 47.82 8.79 47.82 10.40C47.82 12.03 46.72 13.15 45.18 13.15C43.64 13.15 42.53 12.03 42.53 10.40ZM50.09 10.39C50.09 12.60 51.65 14.13 53.83 14.13C56.01 14.13 57.57 12.60 57.57 10.39C57.57 8.19 56.01 6.68 53.83 6.68C51.65 6.68 50.09 8.19 50.09 10.39ZM51.18 10.40C51.18 8.79 52.29 7.67 53.83 7.67C55.37 7.67 56.48 8.79 56.48 10.40C56.48 12.03 55.37 13.15 53.83 13.15C52.29 13.15 51.18 12.03 51.18 10.40ZM59.56 14.08L60.65 14.08L60.65 11.97L62.20 10.36L64.72 14.08L66.02 14.08L62.97 9.56L65.73 6.71L64.44 6.71L60.65 10.49L60.65 3.70L59.56 3.70Z"></path></g><!----><!----></svg>